<?xml version="1.0" encoding="UTF-8"?>
<svg version="1.1" xmlns="http://www.w3.org/2000/svg" width="782" height="782">
<path d="M0 0 C258.06 0 516.12 0 782 0 C782 258.06 782 516.12 782 782 C523.94 782 265.88 782 0 782 C0 523.94 0 265.88 0 0 Z " fill="#000000" transform="translate(0,0)"/>
<path d="M0 0 C33.99 0 67.98 0 103 0 C103.01981934 7.32638672 103.03963867 14.65277344 103.06005859 22.20117188 C103.12507625 45.73123409 103.19962195 69.26125644 103.28005161 92.79127058 C103.29256819 96.45557337 103.30500132 100.11987644 103.31738281 103.78417969 C103.31984881 104.51357547 103.3223148 105.24297125 103.32485552 105.99446994 C103.36441398 117.75378885 103.3972355 129.51311718 103.42749982 141.27246326 C103.45878255 153.36825982 103.49746151 165.46401701 103.54279006 177.55976915 C103.56799713 184.3412698 103.58996208 191.1227464 103.60334396 197.90428162 C103.61631479 204.30645686 103.63852571 210.70853785 103.66738319 217.11066055 C103.67634309 219.44200232 103.68212152 221.77335921 103.68421364 224.10471725 C103.26097745 273.21735634 103.26097745 273.21735634 125.16015625 315.5703125 C134.11745661 323.23391748 145.49760093 327.15196912 157 329 C158.08667969 329.19335938 158.08667969 329.19335938 159.1953125 329.390625 C178.3267208 332.33391858 199.83901807 328.75738705 216 318 C230.40399929 306.41688792 236.12143424 287.39646792 238.28761744 269.64272678 C239.91795296 254.26402698 240.30517654 238.98449879 240.31884766 223.53149414 C240.32817368 221.07492757 240.33834619 218.6183641 240.34928894 216.1618042 C240.37074638 210.92601553 240.38647027 205.69024524 240.39665604 200.4544239 C240.4113924 192.88479373 240.4369682 185.31522886 240.46498732 177.74563759 C240.51018772 165.45731429 240.54691146 153.16898145 240.578125 140.88061523 C240.60842126 128.96067637 240.64282131 117.0407607 240.68261719 105.12084961 C240.68507874 104.38313035 240.68754028 103.64541109 240.69007643 102.8853367 C240.70245317 99.18352733 240.71490929 95.48171823 240.72740483 91.77990925 C240.83057093 61.18663414 240.91831061 30.59334215 241 0 C274.99 0 308.98 0 344 0 C344.06631017 32.9687352 344.12163532 65.93740495 344.15319599 98.90618691 C344.15694748 102.81083045 344.16083051 106.71547385 344.16479492 110.62011719 C344.16558185 111.39736281 344.16636878 112.17460843 344.16717956 112.97540694 C344.18018376 125.51074342 344.20380966 138.04603803 344.23145839 150.58134979 C344.25965219 163.47264454 344.27620556 176.36391757 344.28226548 189.25524187 C344.28635318 197.19054965 344.29919628 205.12573903 344.3237494 213.0610103 C344.34169252 219.17677432 344.34333084 225.29245072 344.33932304 231.40823746 C344.34013939 233.89440254 344.34598456 236.38057266 344.35761642 238.86671066 C344.4472297 259.03214526 343.26353559 279.12076306 338.3125 298.75 C338.05831299 299.77601318 337.80412598 300.80202637 337.54223633 301.85913086 C329.04315766 334.70815894 310.68529873 364.53463521 281.171875 382.3515625 C263.54072289 392.68114126 244.84915144 399.14798942 224.875 403.25 C224.14974121 403.40098145 223.42448242 403.55196289 222.67724609 403.70751953 C207.05234754 406.71844393 191.47052122 407.34818439 175.59814453 407.31567383 C172.39971429 407.31252434 169.20222247 407.3360382 166.00390625 407.36132812 C121.60777814 407.49803774 74.73692986 397.62115142 41.8359375 365.859375 C13.05173357 337.2115891 0.34693152 294.53752318 -0.12304783 254.58595753 C-0.12718293 252.65950751 -0.12598277 250.73304078 -0.12025452 248.80659485 C-0.12110894 247.73547256 -0.12196337 246.66435027 -0.12284368 245.56076974 C-0.12447974 242.00184008 -0.11900802 238.44295845 -0.11352539 234.8840332 C-0.11324309 232.32086691 -0.11340209 229.75770054 -0.1139679 227.1945343 C-0.11419499 221.69169322 -0.11137411 216.18886738 -0.10573006 210.68602943 C-0.09757522 202.73002138 -0.09499577 194.77401904 -0.09374207 186.81800725 C-0.09155779 173.90739545 -0.08491467 160.99679 -0.07543945 148.08618164 C-0.06624916 135.55070019 -0.05917625 123.01522047 -0.05493164 110.47973633 C-0.05466892 109.70600744 -0.05440619 108.93227854 -0.05413551 108.13510332 C-0.0528304 104.25322179 -0.05156671 100.37134024 -0.05032361 96.48945868 C-0.03997044 64.32630016 -0.02154263 32.16315345 0 0 Z " fill="#32FE00" transform="translate(219,242)"/>
<path d="M0 0 C33.99 0 67.98 0 103 0 C103.01981934 7.32638672 103.03963867 14.65277344 103.06005859 22.20117188 C103.12507625 45.73123409 103.19962195 69.26125644 103.28005161 92.79127058 C103.29256819 96.45557337 103.30500132 100.11987644 103.31738281 103.78417969 C103.31984881 104.51357547 103.3223148 105.24297125 103.32485552 105.99446994 C103.36441398 117.75378885 103.3972355 129.51311718 103.42749982 141.27246326 C103.45878255 153.36825982 103.49746151 165.46401701 103.54279006 177.55976915 C103.56799713 184.3412698 103.58996208 191.1227464 103.60334396 197.90428162 C103.61631479 204.30645686 103.63852571 210.70853785 103.66738319 217.11066055 C103.67634309 219.44200232 103.68212152 221.77335921 103.68421364 224.10471725 C103.70617777 244.89014014 105.15370118 265.40975325 108 286 C107.01 286 106.02 286 105 286 C104.94465088 285.40461426 104.88930176 284.80922852 104.83227539 284.19580078 C104.57981135 281.50512785 104.32123184 278.81507714 104.0625 276.125 C103.97548828 275.18785156 103.88847656 274.25070312 103.79882812 273.28515625 C103.71181641 272.38925781 103.62480469 271.49335937 103.53515625 270.5703125 C103.456604 269.74289551 103.37805176 268.91547852 103.29711914 268.06298828 C103.10222637 265.9418334 103.10222637 265.9418334 102 264 C101.90252724 262.60875319 101.86618214 261.21297569 101.8613348 259.81832695 C101.85586036 258.93652917 101.85038591 258.05473139 101.84474558 257.14621246 C101.84376747 256.17151917 101.84278936 255.19682588 101.84178162 254.19259644 C101.83684364 253.16183239 101.83190566 252.13106835 101.82681805 251.06906903 C101.8113807 247.59275996 101.80306559 244.11646944 101.79467773 240.64013672 C101.78510411 238.15711299 101.77509434 235.6740909 101.76467896 233.19107056 C101.74319346 227.83377499 101.72476004 222.47648207 101.70907402 217.11916733 C101.68638926 209.37333177 101.65824452 201.62752367 101.62875474 193.88171138 C101.58106171 181.31552152 101.53780217 168.74932045 101.49731445 156.18310547 C101.45796822 143.97411221 101.4165441 131.76512893 101.37231445 119.55615234 C101.36959018 118.80395491 101.36686591 118.05175747 101.36405908 117.27676617 C101.35037975 113.50332135 101.33665945 109.72987669 101.32291877 105.9564321 C101.20892712 74.63764096 101.10293754 43.31882991 101 12 C69.32 12 37.64 12 5 12 C5 12.66 5 13.32 5 14 C4.01 14 3.02 14 2 14 C2.33 101.45 2.66 188.9 3 279 C2.67 279 2.34 279 2 279 C0.00704946 263.9602818 -0.27432975 249.13175519 -0.22705078 233.97583008 C-0.22648542 231.41148381 -0.22680566 228.84713722 -0.22793579 226.28279114 C-0.22838803 220.80189895 -0.2227962 215.32106847 -0.21146011 209.84018898 C-0.19508167 201.91614696 -0.18998461 193.99212785 -0.18748413 186.06807073 C-0.18312619 173.20625599 -0.16986919 160.34446688 -0.15087891 147.48266602 C-0.13247054 135.00187303 -0.11833842 122.52108705 -0.10986328 110.0402832 C-0.10933783 109.2686561 -0.10881239 108.497029 -0.10827102 107.70201925 C-0.1056606 103.83030282 -0.10313327 99.95858635 -0.10064721 96.08686984 C-0.07997402 64.0578905 -0.04313665 32.02895892 0 0 Z " fill="#33FC06" transform="translate(219,242)"/>
<path d="M0 0 C33.99 0 67.98 0 103 0 C103.01981934 7.32638672 103.03963867 14.65277344 103.06005859 22.20117188 C103.12507625 45.73123409 103.19962195 69.26125644 103.28005161 92.79127058 C103.29256819 96.45557337 103.30500132 100.11987644 103.31738281 103.78417969 C103.31984881 104.51357547 103.3223148 105.24297125 103.32485552 105.99446994 C103.36441398 117.75378885 103.3972355 129.51311718 103.42749982 141.27246326 C103.45878255 153.36825982 103.49746151 165.46401701 103.54279006 177.55976915 C103.56799713 184.3412698 103.58996208 191.1227464 103.60334396 197.90428162 C103.61631479 204.30645686 103.63852571 210.70853785 103.66738319 217.11066055 C103.67634309 219.44200232 103.68212152 221.77335921 103.68421364 224.10471725 C103.70617777 244.89014014 105.15370118 265.40975325 108 286 C107.01 286 106.02 286 105 286 C104.94465088 285.40461426 104.88930176 284.80922852 104.83227539 284.19580078 C104.57981135 281.50512785 104.32123184 278.81507714 104.0625 276.125 C103.97548828 275.18785156 103.88847656 274.25070312 103.79882812 273.28515625 C103.71181641 272.38925781 103.62480469 271.49335937 103.53515625 270.5703125 C103.456604 269.74289551 103.37805176 268.91547852 103.29711914 268.06298828 C103.10222637 265.9418334 103.10222637 265.9418334 102 264 C101.90220932 262.5514064 101.8661698 261.09841847 101.8613348 259.64653587 C101.85586036 258.72642074 101.85038591 257.80630561 101.84474558 256.8583082 C101.84376747 255.84081448 101.84278936 254.82332076 101.84178162 253.7749939 C101.83437465 252.16146922 101.83437465 252.16146922 101.82681805 250.51534808 C101.81137893 246.88702404 101.80306512 243.25871779 101.79467773 239.63037109 C101.78510425 237.03897442 101.77509449 234.44757933 101.76467896 231.85618591 C101.74289782 226.26480223 101.72475934 220.67341616 101.70907402 215.08201218 C101.68639027 206.99771733 101.65824539 198.91344881 101.62875474 190.82917626 C101.58106047 177.7139286 101.53780127 164.59867019 101.49731445 151.48339844 C101.45796886 138.7408769 101.41654489 125.99836493 101.37231445 113.25585938 C101.36959018 112.47080499 101.36686591 111.6857506 101.36405908 110.87690668 C101.35037976 106.93863709 101.33665946 103.00036764 101.32291877 99.06209826 C101.20892516 66.37475092 101.10293623 33.6873845 101 1 C68 1 35 1 1 1 C1.10554891 33.68045502 1.2145457 66.36089004 1.33111694 99.04130711 C1.34488594 102.90261932 1.35861312 106.76393169 1.37231445 110.62524414 C1.37504276 111.39393734 1.37777106 112.16263053 1.38058204 112.95461746 C1.42461467 125.38877503 1.4652629 137.82294146 1.50465261 150.25711451 C1.54516855 163.02293124 1.58933954 175.78873159 1.63687855 188.55452412 C1.66608017 196.42685684 1.6924567 204.29918848 1.71517897 212.17154261 C1.7329307 218.21579411 1.75577642 224.2600156 1.78049088 230.30424309 C1.78981666 232.77811745 1.79750778 235.25199861 1.80341911 237.72588348 C1.81175676 241.11146363 1.82605397 244.49696983 1.84178162 247.88252258 C1.84275972 248.85434599 1.84373783 249.82616939 1.84474558 250.82744199 C1.87800612 256.42074831 2.19452532 261.91463581 2.78070885 267.47800702 C3.11554298 271.32882048 3.06332907 275.13692686 3 279 C2.67 279 2.34 279 2 279 C0.00704946 263.9602818 -0.27432975 249.13175519 -0.22705078 233.97583008 C-0.22648542 231.41148381 -0.22680566 228.84713722 -0.22793579 226.28279114 C-0.22838803 220.80189895 -0.2227962 215.32106847 -0.21146011 209.84018898 C-0.19508167 201.91614696 -0.18998461 193.99212785 -0.18748413 186.06807073 C-0.18312619 173.20625599 -0.16986919 160.34446688 -0.15087891 147.48266602 C-0.13247054 135.00187303 -0.11833842 122.52108705 -0.10986328 110.0402832 C-0.10933783 109.2686561 -0.10881239 108.497029 -0.10827102 107.70201925 C-0.1056606 103.83030282 -0.10313327 99.95858635 -0.10064721 96.08686984 C-0.07997402 64.0578905 -0.04313665 32.02895892 0 0 Z " fill="#4FE22C" transform="translate(219,242)"/>
<path d="M0 0 C0.66 0 1.32 0 2 0 C2 0.66 2 1.32 2 2 C2.99 2 3.98 2 5 2 C5.33 1.34 5.66 0.68 6 0 C6 1.32 6 2.64 6 4 C5.01 4.66 4.02 5.32 3 6 C2.54780516 7.92183444 2.54780516 7.92183444 2.62247658 10.17265892 C2.61465334 11.05257291 2.60683009 11.9324869 2.59876978 12.83906496 C2.60546195 13.81178869 2.61215411 14.78451243 2.61904907 15.78671265 C2.6143691 16.81561603 2.60968913 17.84451942 2.60486734 18.90460169 C2.59283722 22.37582003 2.60240643 25.84664936 2.61181641 29.31787109 C2.60775382 31.79800142 2.60241371 34.27812994 2.59588623 36.758255 C2.58358587 42.81403415 2.58544521 48.86965906 2.59412415 54.92543231 C2.60089727 59.8560961 2.60181899 64.78672868 2.5985527 69.71739578 C2.598093 70.41906746 2.59763331 71.12073914 2.59715968 71.84367359 C2.59620046 73.26931091 2.59522782 74.69494822 2.5942419 76.12058552 C2.58567447 89.51094909 2.59553743 102.90125122 2.611643 116.29160471 C2.62499484 127.74554097 2.62276336 139.19938579 2.60888672 150.65332031 C2.59276363 163.96761791 2.58655391 177.2818612 2.59572351 190.59616721 C2.59667906 192.02208494 2.59762217 193.44800269 2.5985527 194.87392044 C2.59924694 195.92608629 2.59924694 195.92608629 2.59995521 196.99950802 C2.60252897 201.90687509 2.59820812 206.81420738 2.59111404 211.72156906 C2.58172618 218.36178462 2.58859203 225.00185667 2.60579681 231.64206505 C2.60972773 234.06539949 2.60868673 236.48874852 2.60200882 238.91207695 C2.56965828 251.85718131 3.09334154 264.27642473 5.35739708 277.03837013 C5.89042943 280.06494499 6.14543683 282.91626813 6 286 C3.64822589 281.69456533 3.12780551 277.55657171 2.4375 272.75 C2.31181641 271.94820312 2.18613281 271.14640625 2.05664062 270.3203125 C-0.3313102 254.16726296 -0.14028303 237.88579005 -0.11352539 221.6015625 C-0.11324281 219.17558798 -0.11340264 216.74961338 -0.1139679 214.32363892 C-0.11422361 208.45968653 -0.10992151 202.59575072 -0.10353024 196.73180211 C-0.09633523 189.89931562 -0.09488106 183.06683137 -0.09374207 176.23434162 C-0.09156171 164.05303417 -0.08492937 151.87173348 -0.07543945 139.69042969 C-0.06623891 127.8681644 -0.05917105 116.04590096 -0.05493164 104.22363281 C-0.05466892 103.49303548 -0.05440619 102.76243814 -0.05413551 102.00970149 C-0.05283033 98.34395012 -0.05156665 94.67819874 -0.05032361 91.01244736 C-0.03998268 60.67496007 -0.0223171 30.33748098 0 0 Z " fill="#093C02" transform="translate(322,242)"/>
<path d="M0 0 C0.33 0 0.66 0 1 0 C1.02293406 33.19825237 1.04053256 66.39650266 1.05106533 99.59476116 C1.0523159 103.52215849 1.05361024 107.44955581 1.05493164 111.37695312 C1.05519395 112.15876322 1.05545626 112.94057332 1.05572652 113.74607463 C1.06006712 126.37274285 1.06794576 138.99940647 1.0771528 151.62607197 C1.0865342 164.60096099 1.09206508 177.57584762 1.09408849 190.55073988 C1.09545443 198.5443671 1.09975434 206.53798133 1.10791647 214.53160454 C1.11387241 220.68123281 1.11444767 226.83085135 1.11310768 232.9804821 C1.11338096 235.48851158 1.11534545 237.99654158 1.11920547 240.5045681 C1.13518098 251.42782329 1.14883198 262.34215533 0.59056091 273.2538147 C0.53943731 274.31453267 0.53943731 274.31453267 0.48728091 275.39667928 C0.15631977 280.88338267 -0.96338983 285.90207015 -3 291 C-3.33 291 -3.66 291 -4 291 C-3.58974677 286.09855348 -3.16074825 281.20962116 -2.51267433 276.33290291 C-0.72921314 262.86374716 -0.69245128 249.47418683 -0.68115234 235.90576172 C-0.67183595 233.3218556 -0.66166478 230.73795244 -0.65071106 228.15405273 C-0.62861418 222.62788302 -0.61349626 217.10173128 -0.60334396 211.57552719 C-0.58865566 203.5859203 -0.56309169 195.59637613 -0.53501268 187.60680641 C-0.48972727 174.6390921 -0.45303777 161.67136866 -0.421875 148.70361328 C-0.39161418 136.11896161 -0.3572298 123.53433215 -0.31738281 110.94970703 C-0.31492126 110.17184321 -0.31245972 109.39397939 -0.30992357 108.59254394 C-0.29754751 104.68958848 -0.28509126 100.78663328 -0.27259517 96.8836782 C-0.16930118 64.58914904 -0.08000845 32.29459555 0 0 Z " fill="#002000" transform="translate(563,242)"/>
<path d="M0 0 C0.33 0 0.66 0 1 0 C2.31156252 4.12205365 3.19309031 8.09222439 3.8125 12.375 C4.7726041 18.53371656 6.47029989 24.36310076 8.32348633 30.30029297 C9.25498436 33.30964099 10 35.82903546 10 39 C10.99 39 11.98 39 13 39 C13.66 37.35 14.32 35.7 15 34 C15.33 34 15.66 34 16 34 C16 38.62 16 43.24 16 48 C16.66 48 17.32 48 18 48 C17.87625 48.969375 17.7525 49.93875 17.625 50.9375 C17.55988974 56.2331342 20.91879619 59.95592 24 64 C25.32 63.34 26.64 62.68 28 62 C27.97679687 62.60328125 27.95359375 63.2065625 27.9296875 63.828125 C27.91164062 64.62734375 27.89359375 65.4265625 27.875 66.25 C27.85179687 67.03890625 27.82859375 67.8278125 27.8046875 68.640625 C28.0171622 71.20731941 28.71345895 72.7916067 30 75 C30.66 75 31.32 75 32 75 C32.33 76.32 32.66 77.64 33 79 C28.05707979 75.61134355 25.30594426 71.43285097 22.1875 66.4375 C21.66269043 65.59687012 21.13788086 64.75624023 20.59716797 63.89013672 C9.91635153 46.32227222 -1.10440131 20.9836248 0 0 Z M17 27 C19 30 19 30 18.625 32.1875 C18.41875 32.785625 18.2125 33.38375 18 34 C17.34 34 16.68 34 16 34 C15.95745644 32.00045254 15.95919217 29.99958364 16 28 C16.33 27.67 16.66 27.34 17 27 Z " fill="#42EE18" transform="translate(222,521)"/>
<path d="M0 0 C0.66 0 1.32 0 2 0 C1.51496148 6.92123273 0.37623164 13.34206238 -1.5625 20 C-1.82135986 20.89847656 -2.08021973 21.79695312 -2.34692383 22.72265625 C-5.56890917 33.46827492 -9.77273481 44.59480892 -16 54 C-16.33 54 -16.66 54 -17 54 C-17 52.02 -17 50.04 -17 48 C-16.01 48 -15.02 48 -14 48 C-13.9071875 46.824375 -13.9071875 46.824375 -13.8125 45.625 C-12.872236 41.429976 -11.17657597 38.13767958 -9.15625 34.3671875 C-8.10898788 32.22313059 -7.47212213 30.32842053 -7 28 C-8.32 28.99 -9.64 29.98 -11 31 C-10.36593786 19.73993096 -10.36593786 19.73993096 -7 16 C-5.68 16 -4.36 16 -3 16 C-3.33 14.783125 -3.66 13.56625 -4 12.3125 C-4.80322213 9.12789396 -5.20641973 6.3027157 -5 3 C-4.54625 3.495 -4.0925 3.99 -3.625 4.5 C-2.12364481 6.22609337 -2.12364481 6.22609337 0 6 C0 4.02 0 2.04 0 0 Z " fill="#3CF111" transform="translate(557,528)"/>
<path d="M0 0 C1.18335938 0.13277344 2.36671875 0.26554688 3.5859375 0.40234375 C5.18228829 0.58075943 6.77864265 0.75914312 8.375 0.9375 C9.14972656 1.02451172 9.92445313 1.11152344 10.72265625 1.20117188 C12.28261076 1.37521639 13.84283057 1.5469013 15.40332031 1.71607971 C17.02565497 1.89346537 18.64744238 2.07602187 20.26831055 2.26634216 C26.64555276 2.97489214 32.93870581 3.14589983 39.3515625 3.1328125 C40.40926849 3.13376923 41.46697449 3.13472595 42.55673218 3.13571167 C44.78375305 3.13638836 47.01077595 3.13456997 49.23779297 3.13037109 C52.59477324 3.12504793 55.95161776 3.13031701 59.30859375 3.13671875 C70.91330056 3.13994282 82.43045673 2.95095104 94 2 C94 2.66 94 3.32 94 4 C92.41058594 4.09087891 92.41058594 4.09087891 90.7890625 4.18359375 C89.40102779 4.26800127 88.01300768 4.35264917 86.625 4.4375 C85.57699219 4.49647461 85.57699219 4.49647461 84.5078125 4.55664062 C80.62639508 4.74280134 80.62639508 4.74280134 77 6 C75.42793357 6.11840113 73.85116731 6.17703033 72.27490234 6.20532227 C71.29403656 6.22526749 70.31317078 6.24521271 69.30258179 6.26576233 C67.71034286 6.29083107 67.71034286 6.29083107 66.0859375 6.31640625 C65.00116119 6.33718735 63.91638489 6.35796844 62.79873657 6.37937927 C59.32422379 6.44490634 55.84963376 6.50377447 52.375 6.5625 C50.02342942 6.60568221 47.67186674 6.6492964 45.3203125 6.69335938 C39.5469573 6.80059093 33.7735248 6.90235144 28 7 C27.67 6.01 27.34 5.02 27 4 C25.45892578 4.05220703 25.45892578 4.05220703 23.88671875 4.10546875 C15.42452884 4.30188322 8.08052837 3.87612027 0 1 C0 0.67 0 0.34 0 0 Z " fill="#001B00" transform="translate(338,645)"/>
<path d="M0 0 C0.66 0 1.32 0 2 0 C1.67447917 1.98567708 1.34895833 3.97135417 1.0234375 5.95703125 C0.80422152 8.31755824 0.80422152 8.31755824 3 11 C3.433125 12.03125 3.86625 13.0625 4.3125 14.125 C5.71013691 17.23423978 5.71013691 17.23423978 8.6875 17.875 C9.450625 17.91625 10.21375 17.9575 11 18 C10.79375 18.9075 10.5875 19.815 10.375 20.75 C9.98659073 24.11621369 10.01488756 25.32009821 12 28 C12.99 28.33 13.98 28.66 15 29 C14.67 29.99 14.34 30.98 14 32 C6.10025485 24.94164783 0.48514438 16.02491529 -3 6 C-3 5.01 -3 4.02 -3 3 C-2.34 3 -1.68 3 -1 3 C-0.67 2.01 -0.34 1.02 0 0 Z " fill="#021401" transform="translate(332,528)"/>
<path d="M0 0 C1.70106088 2.55159131 2.71848115 4.59902532 3.8046875 7.421875 C4.14113281 8.28296875 4.47757813 9.1440625 4.82421875 10.03125 C5.51847037 11.82752929 6.21120736 13.6243948 6.90234375 15.421875 C8.47597481 19.44271177 10.06605316 23.28866858 12.2578125 27.015625 C14 30 14 30 14 32 C13.01 31.67 12.02 31.34 11 31 C10.3125 28.9375 10.3125 28.9375 10 27 C9.34 27 8.68 27 8 27 C6.66666667 25.66666667 5.33333333 24.33333333 4 23 C4.30271961 21.65938457 4.63837971 20.32594105 5 19 C4.67 18.01 4.34 17.02 4 16 C2.68 16 1.36 16 0 16 C0.33 13.69 0.66 11.38 1 9 C-0.98 9.99 -0.98 9.99 -3 11 C-2.11223998 7.30099992 -1.05418136 3.65449539 0 0 Z " fill="#021600" transform="translate(228,552)"/>
<path d="M0 0 C-0.33 0.66 -0.66 1.32 -1 2 C-0.33613281 2.12117187 0.32773437 2.24234375 1.01171875 2.3671875 C1.89472656 2.53476562 2.77773438 2.70234375 3.6875 2.875 C4.55761719 3.03742187 5.42773438 3.19984375 6.32421875 3.3671875 C9 4 9 4 11.5 5.04296875 C14.21861469 6.08368843 16.41408497 6.29908076 19.3125 6.4375 C24.40352422 6.81001397 28.33068776 7.97369469 33 10 C33 10.33 33 10.66 33 11 C25.43765571 10.49242322 18.24688462 9.36687991 10.875 7.625 C9.95074219 7.41617188 9.02648437 7.20734375 8.07421875 6.9921875 C2.25790066 5.64680504 -3.37521239 3.99957824 -9 2 C-9 1.67 -9 1.34 -9 1 C-2.25 -1.125 -2.25 -1.125 0 0 Z " fill="#48E621" transform="translate(320,636)"/>
<path d="M0 0 C0.598125 0.515625 1.19625 1.03125 1.8125 1.5625 C2.534375 2.036875 3.25625 2.51125 4 3 C4.99 2.67 5.98 2.34 7 2 C7.99 2.33 8.98 2.66 10 3 C-25.64055356 20.9599654 -25.64055356 20.9599654 -41 20 C-38.18189679 18.4951369 -35.48159018 17.4737792 -32.40234375 16.6328125 C-31.52296143 16.38893799 -30.6435791 16.14506348 -29.73754883 15.89379883 C-28.35152466 15.51324341 -28.35152466 15.51324341 -26.9375 15.125 C-13.43370159 12.42909425 -13.43370159 12.42909425 -3 5 C-1.68 5 -0.36 5 1 5 C0.505 2.525 0.505 2.525 0 0 Z " fill="#50E12A" transform="translate(486,624)"/>
<path d="M0 0 C0.66 0 1.32 0 2 0 C2.20753906 0.58265625 2.41507813 1.1653125 2.62890625 1.765625 C5.29305864 8.85516859 8.47541211 15.89023167 13 22 C15.9254644 22.2236068 15.9254644 22.2236068 18 21 C17.97679687 21.60328125 17.95359375 22.2065625 17.9296875 22.828125 C17.91164062 23.62734375 17.89359375 24.4265625 17.875 25.25 C17.85179687 26.03890625 17.82859375 26.8278125 17.8046875 27.640625 C18.0171622 30.20731941 18.71345895 31.7916067 20 34 C20.66 34 21.32 34 22 34 C22.33 35.32 22.66 36.64 23 38 C17.94956037 34.57126117 15.21787122 30.21758034 12.0625 25.125 C11.53688477 24.28598145 11.01126953 23.44696289 10.46972656 22.58251953 C0 5.52134391 0 5.52134391 0 0 Z " fill="#4BE023" transform="translate(232,562)"/>
<path d="M0 0 C0.66 0 1.32 0 2 0 C2 0.66 2 1.32 2 2 C4.475 2.495 4.475 2.495 7 3 C1.50924417 8.65714237 -4.23202374 13.90773528 -11 18 C-11.66 18 -12.32 18 -13 18 C-12.67 16.35 -12.34 14.7 -12 13 C-10.329375 12.5978125 -10.329375 12.5978125 -8.625 12.1875 C-4.78159049 11.34190981 -4.78159049 11.34190981 -3 8 C-2.01 7.67 -1.02 7.34 0 7 C-0.99 6.67 -1.98 6.34 -3 6 C-2 4 -1 2 0 0 Z " fill="#46EC11" transform="translate(512,606)"/>
<path d="M0 0 C-1.98 0.66 -3.96 1.32 -6 2 C-6 2.99 -6 3.98 -6 5 C-8.43576515 5.81192172 -9.73919424 6.07244604 -12.25 5.375 C-15.60031402 4.918139 -17.4870125 6.00892837 -20.53125 7.296875 C-25.54054543 8.72357306 -30.83930957 8.21240647 -36 8 C-36 7.67 -36 7.34 -36 7 C-35.32533691 6.86424561 -34.65067383 6.72849121 -33.95556641 6.58862305 C-30.84438191 5.95973263 -27.73470603 5.32365909 -24.625 4.6875 C-23.03365234 4.36749023 -23.03365234 4.36749023 -21.41015625 4.04101562 C-15.45930266 2.81798743 -9.70049034 1.40007309 -3.93896484 -0.53588867 C-2 -1 -2 -1 0 0 Z " fill="#022000" transform="translate(470,639)"/>
<path d="M0 0 C1.32 0 2.64 0 4 0 C0.77584798 9.02438531 -8.27172535 22.63586268 -17 27 C-17 25.68 -17 24.36 -17 23 C-16.01 22.67 -15.02 22.34 -14 22 C-12.99357052 20.67151309 -11.99307821 19.33849671 -11 18 C-10.34 18 -9.68 18 -9 18 C-8.7525 17.2575 -8.505 16.515 -8.25 15.75 C-6.90095207 12.78209456 -5.31949313 11.24467077 -3 9 C-2.67 8.01 -2.34 7.02 -2 6 C-1.34 6 -0.68 6 0 6 C0 4.02 0 2.04 0 0 Z " fill="#52DF2B" transform="translate(536,582)"/>
<path d="M0 0 C1.9375 0.75 1.9375 0.75 4.9375 2.75 C5.2675 3.74 5.5975 4.73 5.9375 5.75 C7.5875 5.75 9.2375 5.75 10.9375 5.75 C10.9375 7.4 10.9375 9.05 10.9375 10.75 C6.47567564 9.43925635 2.94131243 7.67933989 -0.9375 5.125 C-1.90429688 4.49335937 -2.87109375 3.86171875 -3.8671875 3.2109375 C-4.59164063 2.72882812 -5.31609375 2.24671875 -6.0625 1.75 C-2.3203125 -0.28125 -2.3203125 -0.28125 0 0 Z " fill="#3BF30E" transform="translate(283.0625,619.25)"/>
<path d="M0 0 C-2.35808866 2.35808866 -3.0362346 2.2813765 -6.25 2.5 C-9.17212078 2.75126516 -11.22028315 3.08260618 -14 4.125 C-18.09237917 5.31861059 -21.87019953 5.02419052 -26 4 C-26.66 3.34 -27.32 2.68 -28 2 C-24.27114739 1.66309057 -20.5418724 1.33110205 -16.8125 1 C-15.75740234 0.90460937 -14.70230469 0.80921875 -13.61523438 0.7109375 C-12.59365234 0.62070312 -11.57207031 0.53046875 -10.51953125 0.4375 C-9.58214111 0.35371094 -8.64475098 0.26992188 -7.67895508 0.18359375 C-5.10912909 0.00747882 -2.57485166 -0.0326706 0 0 Z " fill="#40ED15" transform="translate(412,571)"/>
<path d="M0 0 C3.42448877 1.3269894 6.70264333 2.82400688 10 4.4375 C18.56132976 8.35422171 27.67041272 10.08533458 37 11 C37 11.33 37 11.66 37 12 C29.40501039 12.26442904 22.42640842 11.60881575 15 10 C15 9.34 15 8.68 15 8 C13.9171875 7.814375 13.9171875 7.814375 12.8125 7.625 C8.07520479 6.57226773 4.00730102 4.74786355 0 2 C0 1.34 0 0.68 0 0 Z " fill="#4DDB22" transform="translate(347,561)"/>
<path d="M0 0 C2.10900753 2.7036986 3.86977004 5.4226196 5.5 8.4375 C7.26570661 11.67018341 9.07462532 14.85859921 11 18 C10.01 18.33 9.02 18.66 8 19 C7.67 17.35 7.34 15.7 7 14 C6.37609375 13.91234375 5.7521875 13.8246875 5.109375 13.734375 C3 13 3 13 1.953125 11.328125 C0.63850477 7.44269189 -0.3906201 4.16661439 0 0 Z " fill="#45E717" transform="translate(330,537)"/>
<path d="M0 0 C-1.68440626 3.98132389 -4.03325341 6.89197977 -7 10 C-8.32 10 -9.64 10 -11 10 C-10.91979855 7.19294916 -10.54452763 5.51793117 -8.48046875 3.5546875 C-3.65625 0 -3.65625 0 0 0 Z " fill="#030208" transform="translate(528,606)"/>
<path d="M0 0 C0 1.66666667 0 3.33333333 0 5 C-1.98 5.33 -3.96 5.66 -6 6 C-6 6.66 -6 7.32 -6 8 C-7.86896555 8.84678051 -9.74550181 9.67686211 -11.625 10.5 C-12.66914063 10.9640625 -13.71328125 11.428125 -14.7890625 11.90625 C-18.08124291 13.02767398 -20.55115223 13.207138 -24 13 C-21.12647985 11.0843199 -18.58067447 9.99250949 -15.375 8.75 C-9.73325737 6.45074966 -4.89887939 3.5999341 0 0 Z " fill="#47DB23" transform="translate(437,558)"/>
<path d="M0 0 C0.99 0 1.98 0 3 0 C1.91526519 9.16413889 -1.14711294 16.70054202 -5 25 C-6.29362893 21.11911321 -5.41911705 19.36457929 -4.1875 15.5 C-3.83042969 14.3553125 -3.47335937 13.210625 -3.10546875 12.03125 C-2 9 -2 9 0 6 C0.16699232 2.87478167 0.16699232 2.87478167 0 0 Z " fill="#011A01" transform="translate(453,521)"/>
<path d="M0 0 C0.33 0.66 0.66 1.32 1 2 C-0.00643739 4.66705908 -1.0734702 7.22182751 -2.25 9.8125 C-2.56324219 10.52470703 -2.87648438 11.23691406 -3.19921875 11.97070312 C-4.9065885 15.79988715 -6.66417529 19.50313301 -9 23 C-9.33 23 -9.66 23 -10 23 C-10 21.02 -10 19.04 -10 17 C-9.01 17 -8.02 17 -7 17 C-6.89816406 16.13117187 -6.79632812 15.26234375 -6.69140625 14.3671875 C-5.95465207 10.77915302 -4.75250461 8.29160378 -2.9375 5.125 C-2.38964844 4.15820312 -1.84179688 3.19140625 -1.27734375 2.1953125 C-0.85582031 1.47085938 -0.43429687 0.74640625 0 0 Z " fill="#4FDE29" transform="translate(550,559)"/>
<path d="M0 0 C10.5 3.5 10.5 3.5 21 7 C17.98849505 7.90550946 15.56229013 8.06723758 12.4375 7.75 C11.67308594 7.68296875 10.90867187 7.6159375 10.12109375 7.546875 C7.59066648 6.89446281 6.73287768 5.90324487 5 4 C2.40084462 2.80972016 2.40084462 2.80972016 0 2 C0 1.34 0 0.68 0 0 Z " fill="#011D00" transform="translate(296,632)"/>
<path d="M0 0 C0.8971875 0.7734375 0.8971875 0.7734375 1.8125 1.5625 C2.534375 2.036875 3.25625 2.51125 4 3 C4.99 2.67 5.98 2.34 7 2 C7.99 2.33 8.98 2.66 10 3 C4.39 5.64 -1.22 8.28 -7 11 C-7.66 10.34 -8.32 9.68 -9 9 C-8.38125 8.896875 -7.7625 8.79375 -7.125 8.6875 C-4.63473516 8.12474627 -4.63473516 8.12474627 -3 5 C-1.68 5 -0.36 5 1 5 C0.67 3.35 0.34 1.7 0 0 Z " fill="#45E81B" transform="translate(486,624)"/>
<path d="M0 0 C1.76462683 3.08809695 2 4.23312136 2 8 C1.34 8.66 0.68 9.32 0 10 C-0.64767793 12.57061311 -0.64767793 12.57061311 -1 15 C-1.66 15 -2.32 15 -3 15 C-2.44854729 9.76119922 -1.57077907 5.02649303 0 0 Z M4 0 C4 0.99 4 1.98 4 3 C3.01 3.495 3.01 3.495 2 4 C2.66 2.68 3.32 1.36 4 0 Z " fill="#42ED17" transform="translate(458,513)"/>
<path d="M0 0 C1.32 0 2.64 0 4 0 C3.67 1.65 3.34 3.3 3 5 C2.34 5 1.68 5 1 5 C1 5.99 1 6.98 1 8 C-2.81684226 6.44499019 -5.19195732 3.96404505 -8 1 C-6.576875 1.495 -6.576875 1.495 -5.125 2 C-2.22937548 3.10159191 -2.22937548 3.10159191 0 3 C0 2.01 0 1.02 0 0 Z " fill="#42EC13" transform="translate(276,612)"/>
<path d="M0 0 C1.31872662 0.39651917 2.62997101 0.81798691 3.9375 1.25 C4.66839844 1.48203125 5.39929688 1.7140625 6.15234375 1.953125 C8 3 8 3 8.75390625 5.109375 C8.83511719 5.73328125 8.91632813 6.3571875 9 7 C6.525 8.485 6.525 8.485 4 10 C3.67 8.02 3.34 6.04 3 4 C1.35 3.67 -0.3 3.34 -2 3 C-1.34 2.67 -0.68 2.34 0 2 C0 1.34 0 0.68 0 0 Z " fill="#08030D" transform="translate(260,612)"/>
<path d="M0 0 C1.65 0 3.3 0 5 0 C4.67 1.65 4.34 3.3 4 5 C3.01 5.33 2.02 5.66 1 6 C1 5.34 1 4.68 1 4 C0.2575 4.37125 -0.485 4.7425 -1.25 5.125 C-4 6 -4 6 -6.3125 5.125 C-6.869375 4.75375 -7.42625 4.3825 -8 4 C-4.91190305 2.23537317 -3.76687864 2 0 2 C0 1.34 0 0.68 0 0 Z " fill="#070506" transform="translate(484,633)"/>
<path d="M0 0 C0.33 1.32 0.66 2.64 1 4 C0.34 4 -0.32 4 -1 4 C-1 6.31 -1 8.62 -1 11 C-6.625 13 -6.625 13 -10 13 C-9.52949219 12.48050781 -9.05898438 11.96101562 -8.57421875 11.42578125 C-5.32559823 7.78705723 -2.30339528 4.33580287 0 0 Z " fill="#45E81B" transform="translate(448,544)"/>
<path d="M0 0 C0.33 0 0.66 0 1 0 C1.33868777 2.20751848 1.67071689 4.41605911 2 6.625 C2.185625 7.85476563 2.37125 9.08453125 2.5625 10.3515625 C2.95402516 13.6166027 3.08080924 16.71712451 3 20 C2.67 19.01 2.34 18.02 2 17 C1.34 16.67 0.68 16.34 0 16 C0.33 14.02 0.66 12.04 1 10 C-0.65 10.33 -2.3 10.66 -4 11 C-3.34 9.68 -2.68 8.36 -2 7 C-1.34 7 -0.68 7 0 7 C0 4.69 0 2.38 0 0 Z " fill="#001B00" transform="translate(220,513)"/>
<path d="M0 0 C0.66 0 1.32 0 2 0 C2 0.66 2 1.32 2 2 C3.65 2.33 5.3 2.66 7 3 C6.01 4.32 5.02 5.64 4 7 C1.69 6.67 -0.62 6.34 -3 6 C-2 4 -1 2 0 0 Z " fill="#3BF20E" transform="translate(512,606)"/>
<path d="M0 0 C0.66 0 1.32 0 2 0 C2 0.66 2 1.32 2 2 C2.86625 2.37125 2.86625 2.37125 3.75 2.75 C8.16675353 5.20375196 10.58071608 8.64528895 13 13 C9.63002746 11.5384164 7.39254873 9.6619112 4.8125 7.0625 C4.11769531 6.37285156 3.42289062 5.68320312 2.70703125 4.97265625 C1 3 1 3 0 0 Z " fill="#48D821" transform="translate(255,600)"/>
<path d="M0 0 C0.99 0.66 1.98 1.32 3 2 C0.36 4.31 -2.28 6.62 -5 9 C-5 6.16032769 -4.59732819 3.76264289 -4 1 C-3.01 1.33 -2.02 1.66 -1 2 C-0.67 1.34 -0.34 0.68 0 0 Z " fill="#001800" transform="translate(438,553)"/>
<path d="M0 0 C-0.25 2.875 -0.25 2.875 -1 6 C-3.0625 7.375 -3.0625 7.375 -5 8 C-5.66 6.68 -6.32 5.36 -7 4 C-3.375 0 -3.375 0 0 0 Z " fill="#04010C" transform="translate(460,240)"/>
<path d="M0 0 C1.5778125 0.495 1.5778125 0.495 3.1875 1 C6.38873357 1.83966782 8.7411008 2.19750904 12 2 C12 3.65 12 5.3 12 7 C7.39104317 5.68315519 3.85859765 3.84801255 0 1 C0 0.67 0 0.34 0 0 Z " fill="#4BE823" transform="translate(282,623)"/>
<path d="M0 0 C0.66 0.33 1.32 0.66 2 1 C0.71034824 2.37562854 -0.62689293 3.70766393 -2 5 C-2.66 5 -3.32 5 -4 5 C-4 5.66 -4 6.32 -4 7 C-6.31 7.33 -8.62 7.66 -11 8 C-7.45960866 5.0843836 -3.8373228 2.49872182 0 0 Z " fill="#022401" transform="translate(505,620)"/>
<path d="M0 0 C0.33 0.66 0.66 1.32 1 2 C0.0126546 3.67419438 -0.98812105 5.34051852 -2 7 C-2 7.99 -2 8.98 -2 10 C-4.64738916 11.4606285 -5.89448334 12 -9 12 C-6.03 8.04 -3.06 4.08 0 0 Z " fill="#012000" transform="translate(538,586)"/>
<path d="M0 0 C2.69082872 0.17635452 5.32851446 0.61835921 8 1 C8 1.66 8 2.32 8 3 C8.99 3.33 9.98 3.66 11 4 C9.37581255 4.08090971 7.75048255 4.13914995 6.125 4.1875 C5.22007812 4.22230469 4.31515625 4.25710938 3.3828125 4.29296875 C2.20332031 4.14794922 2.20332031 4.14794922 1 4 C0.34 3.01 -0.32 2.02 -1 1 C-0.67 0.67 -0.34 0.34 0 0 Z " fill="#3CF813" transform="translate(352,643)"/>
<path d="M0 0 C0.515625 0.66 1.03125 1.32 1.5625 2 C4.61208585 5.75333644 7.7986681 9.37602035 11 13 C8 13 8 13 6.2109375 11.42578125 C5.60507813 10.72839844 4.99921875 10.03101563 4.375 9.3125 C3.76398438 8.62800781 3.15296875 7.94351563 2.5234375 7.23828125 C0.85390213 4.78534851 0.37824488 2.91861931 0 0 Z " fill="#022500" transform="translate(247,591)"/>
<path d="M0 0 C0.33 1.32 0.66 2.64 1 4 C-0.65 4.66 -2.3 5.32 -4 6 C-4 5.34 -4 4.68 -4 4 C-4.66 4 -5.32 4 -6 4 C-6 5.65 -6 7.3 -6 9 C-6.66 9 -7.32 9 -8 9 C-7.67 6.69 -7.34 4.38 -7 2 C-4.69 2 -2.38 2 0 2 C0 1.34 0 0.68 0 0 Z " fill="#08040A" transform="translate(440,550)"/>
<path d="M0 0 C3.63 0 7.26 0 11 0 C8 3 8 3 4.9375 3.25 C2 3 2 3 0 2 C0 1.34 0 0.68 0 0 Z " fill="#35FB0B" transform="translate(416,644)"/>
<path d="M0 0 C8.44646925 6.15034169 8.44646925 6.15034169 12 10 C10.35 9.67 8.7 9.34 7 9 C7 8.34 7 7.68 7 7 C6.401875 6.9175 5.80375 6.835 5.1875 6.75 C2.37067727 5.78423221 1.52200868 4.51131433 0 2 C0 1.34 0 0.68 0 0 Z " fill="#002200" transform="translate(261,608)"/>
<path d="M0 0 C0.66 0 1.32 0 2 0 C0.28571429 9.71428571 0.28571429 9.71428571 -3 13 C-3.38281159 7.76824163 -2.21854707 4.62197306 0 0 Z " fill="#09010A" transform="translate(451,525)"/>
<path d="M0 0 C0.33 0.99 0.66 1.98 1 3 C0.67 3.66 0.34 4.32 0 5 C-0.66 5 -1.32 5 -2 5 C-2.2475 5.598125 -2.495 6.19625 -2.75 6.8125 C-4.16370012 9.28647521 -5.65055383 10.43370255 -8 12 C-8.66 11.67 -9.32 11.34 -10 11 C-9.36191406 10.37351562 -8.72382812 9.74703125 -8.06640625 9.1015625 C-7.24011719 8.28429687 -6.41382813 7.46703125 -5.5625 6.625 C-4.73878906 5.81289063 -3.91507813 5.00078125 -3.06640625 4.1640625 C-0.96565328 2.17651485 -0.96565328 2.17651485 0 0 Z " fill="#002000" transform="translate(528,599)"/>
<path d="M0 0 C1.32 0 2.64 0 4 0 C2.66511872 3.59391114 1.03977277 6.75490696 -1 10 C-1.66 9.67 -2.32 9.34 -3 9 C-2.67 8.01 -2.34 7.02 -2 6 C-1.34 6 -0.68 6 0 6 C0 4.02 0 2.04 0 0 Z " fill="#4AE318" transform="translate(536,582)"/>
<path d="M0 0 C0.66 0.33 1.32 0.66 2 1 C0.625 2.5 0.625 2.5 -1 4 C-1.66 4 -2.32 4 -3 4 C-3 3.34 -3 2.68 -3 2 C-2.01 1.34 -1.02 0.68 0 0 Z M-5 4 C-4.34 4.33 -3.68 4.66 -3 5 C-3 5.66 -3 6.32 -3 7 C-4.65 7.33 -6.3 7.66 -8 8 C-8 7.01 -8 6.02 -8 5 C-7.01 4.67 -6.02 4.34 -5 4 Z " fill="#060409" transform="translate(504,623)"/>
<path d="M0 0 C6 7.71428571 6 7.71428571 6 11 C5.01 10.67 4.02 10.34 3 10 C2.3125 7.9375 2.3125 7.9375 2 6 C1.34 6 0.68 6 0 6 C0 4.02 0 2.04 0 0 Z " fill="#021E01" transform="translate(236,573)"/>
<path d="M0 0 C2.52394612 3.12488567 4.39701907 6.31314387 6 10 C5.67 10.66 5.34 11.32 5 12 C0.09846827 5.92560175 0.09846827 5.92560175 -0.3125 2.0625 C-0.209375 1.381875 -0.10625 0.70125 0 0 Z " fill="#4FDB2D" transform="translate(330,537)"/>
<path d="M0 0 C3.96 1.98 3.96 1.98 8 4 C7.67 4.66 7.34 5.32 7 6 C4.69 5.34 2.38 4.68 0 4 C0 2.68 0 1.36 0 0 Z " fill="#022500" transform="translate(284,625)"/>
<path d="M0 0 C3.625 0.375 3.625 0.375 7 1 C7 1.99 7 2.98 7 4 C2.545 3.01 2.545 3.01 -2 2 C-1.34 1.34 -0.68 0.68 0 0 Z " fill="#38F90D" transform="translate(425,567)"/>
<path d="M0 0 C0.99 0 1.98 0 3 0 C2.71715982 1.77226453 2.42339502 3.542788 2.125 5.3125 C1.96257812 6.29863281 1.80015625 7.28476562 1.6328125 8.30078125 C1 11 1 11 -1 14 C-0.67 9.38 -0.34 4.76 0 0 Z " fill="#022A00" transform="translate(453,521)"/>
<path d="M0 0 C0 0.99 0 1.98 0 3 C-2.3125 4.5625 -2.3125 4.5625 -5 6 C-5.99 6.66 -6.98 7.32 -8 8 C-8 7.01 -8 6.02 -8 5 C-2.65116279 0 -2.65116279 0 0 0 Z " fill="#012100" transform="translate(516,613)"/>
<path d="M0 0 C0.66 0 1.32 0 2 0 C0.90931332 3.77545388 0.0916909 6.47043472 -3 9 C-3 7.02 -3 5.04 -3 3 C-2.01 3 -1.02 3 0 3 C0 2.01 0 1.02 0 0 Z " fill="#48E020" transform="translate(543,573)"/>
<path d="M0 0 C0.66 0.33 1.32 0.66 2 1 C-1.465 3.97 -1.465 3.97 -5 7 C-5 4 -5 4 -3 1 C-2.01 0.67 -1.02 0.34 0 0 Z " fill="#4ADF21" transform="translate(512,613)"/>
<path d="M0 0 C0.66 0.33 1.32 0.66 2 1 C1.39816251 3.02045442 0.72693904 5.02111039 0 7 C-0.99 7.495 -0.99 7.495 -2 8 C-2.125 5.125 -2.125 5.125 -2 2 C-1.34 1.34 -0.68 0.68 0 0 Z " fill="#0A010B" transform="translate(228,560)"/>
<path d="M0 0 C0.99 1.32 1.98 2.64 3 4 C2.01 4.66 1.02 5.32 0 6 C-0.33 6.99 -0.66 7.98 -1 9 C-1.66 9 -2.32 9 -3 9 C-2.01 6.03 -1.02 3.06 0 0 Z " fill="#3DE71A" transform="translate(452,535)"/>
<path d="M0 0 C1.65 0 3.3 0 5 0 C5 0.99 5 1.98 5 3 C1.25 4.125 1.25 4.125 -1 3 C-0.67 2.01 -0.34 1.02 0 0 Z " fill="#3FF908" transform="translate(310,630)"/>
<path d="M0 0 C6.75 0.875 6.75 0.875 9 2 C9 2.66 9 3.32 9 4 C5.17902761 3.46930939 2.93828597 2.50298434 0 0 Z " fill="#45DF21" transform="translate(294,630)"/>
<path d="M0 0 C2.5 1.375 2.5 1.375 5 3 C5 3.66 5 4.32 5 5 C3.35 5 1.7 5 0 5 C0 3.35 0 1.7 0 0 Z " fill="#070313" transform="translate(280,627)"/>
<path d="M0 0 C-0.33 1.32 -0.66 2.64 -1 4 C-2.32 4 -3.64 4 -5 4 C-5 3.01 -5 2.02 -5 1 C-3 0 -3 0 0 0 Z " fill="#0B0010" transform="translate(522,612)"/>
<path d="M0 0 C0 1.66666667 0 3.33333333 0 5 C-1.98 5.33 -3.96 5.66 -6 6 C-4 4 -2 2 0 0 Z " fill="#4FE52C" transform="translate(437,558)"/>
<path d="M0 0 C1.98 0 3.96 0 6 0 C3.60490662 2.89932357 1.68754757 3.50168276 -2 4 C-1.34 2.68 -0.68 1.36 0 0 Z " fill="#0C020D" transform="translate(421,562)"/>
<path d="M0 0 C-0.33 0.99 -0.66 1.98 -1 3 C-3.31 3.33 -5.62 3.66 -8 4 C-4.5 0 -4.5 0 0 0 Z " fill="#37F809" transform="translate(446,555)"/>
<path d="M0 0 C0.66 0.33 1.32 0.66 2 1 C-0.475 4.465 -0.475 4.465 -3 8 C-3.33 6.68 -3.66 5.36 -4 4 C-3.34 4 -2.68 4 -2 4 C-2 3.34 -2 2.68 -2 2 C-1.34 2 -0.68 2 0 2 C0 1.34 0 0.68 0 0 Z " fill="#001A00" transform="translate(445,546)"/>
</svg>
